<svg viewBox="0 0 40 40" fill="none" xmlns="http://www.w3.org/2000/svg">
    <g clip-path="url(#clip0_19035_6244)">
        <rect width="40" height="40" fill="black" />
        <g clip-path="url(#clip1_19035_6244)">
            <path
                d="M19.9465 32.8273L19.9482 28.4726C19.5094 28.4726 19.0673 28.4376 18.6344 28.3684L17.9589 32.6702C18.6141 32.7744 19.2829 32.8273 19.9474 32.8273H19.9465ZM21.9341 32.6719C22.591 32.5677 23.2437 32.4115 23.8751 32.2057L22.5427 28.0627C22.1268 28.1985 21.6957 28.3018 21.262 28.3702L21.9341 32.6719ZM16.0171 32.2031L17.3529 28.061C16.9362 27.9253 16.528 27.7545 16.1384 27.5547L14.1712 31.4338C14.7627 31.7378 15.384 31.9965 16.0171 32.2031ZM25.7201 31.4389C26.3125 31.1358 26.8854 30.7823 27.4235 30.3887L24.8766 26.8674C24.5226 27.1269 24.1458 27.3592 23.7563 27.5581L25.7201 31.4389ZM12.4687 30.3819L15.0182 26.8622C14.666 26.6044 14.3299 26.3141 14.0176 26.0007L10.9547 29.078L10.9572 29.0806C11.4274 29.5536 11.9357 29.9916 12.4687 30.3819ZM28.9172 29.107L28.9435 29.0797C29.412 28.6084 29.8465 28.0978 30.2352 27.5624L26.7377 24.9966C26.4814 25.35 26.1937 25.6882 25.8831 26.0015L25.8398 26.0459L27.3114 27.4437L28.9172 29.107ZM9.65955 27.5539L13.1587 24.9906C12.9007 24.6345 12.6699 24.2554 12.4713 23.8635L8.61481 25.8401C8.9161 26.4353 9.26745 27.0116 9.65955 27.553V27.5539ZM31.2816 25.8487C31.5838 25.2536 31.8409 24.6285 32.0471 23.9915L27.9301 22.6467C27.7952 23.0659 27.6255 23.4767 27.4269 23.8686L31.2816 25.8487ZM7.85184 23.9822L11.9697 22.6407C11.8347 22.2224 11.7321 21.7886 11.6633 21.3522L7.3876 22.0302C7.49114 22.6911 7.6473 23.3477 7.85184 23.983V23.9822ZM32.5122 22.0396C32.6158 21.3804 32.6684 20.7076 32.6692 20.0399L28.3409 20.0373C28.3409 20.4788 28.3061 20.9236 28.2374 21.3599L32.5122 22.0396ZM11.5606 20.0305C11.5606 19.589 11.5954 19.1433 11.6633 18.7079L7.3876 18.0299C7.28406 18.689 7.23229 19.3619 7.23145 20.0296H11.5598L11.5606 20.0305ZM28.2391 18.7147L32.5148 18.0393C32.4121 17.3784 32.2559 16.7218 32.0522 16.0865L27.9335 17.4254C28.0685 17.8446 28.1712 18.2775 28.2391 18.7138V18.7147ZM11.9697 17.4202C12.1046 17.001 12.2744 16.5894 12.4721 16.1975L8.61566 14.22C8.31437 14.8151 8.05722 15.4401 7.85184 16.0771L11.9688 17.4202H11.9697ZM27.432 16.2035L31.2901 14.2293C30.9888 13.6333 30.6375 13.057 30.2462 12.5156L26.7454 15.0772C27.0025 15.4333 27.2334 15.8124 27.432 16.2043V16.2035ZM13.1604 15.0704C13.4176 14.7152 13.7061 14.3753 14.0184 14.062L14.0269 14.0534L10.9665 10.9744L10.9581 10.983C10.4879 11.456 10.0516 11.9692 9.6621 12.5062L13.1604 15.0704ZM25.8984 14.0773L26.8226 13.1287L28.9503 10.9889L28.9435 10.9821C28.4759 10.5116 27.9692 10.0753 27.4379 9.68508L24.8867 13.203C25.2381 13.4609 25.5733 13.7495 25.8831 14.062L25.8984 14.0773ZM15.0284 13.1936C15.3823 12.9349 15.7591 12.7026 16.1486 12.5037L14.1873 8.62202C13.5949 8.92515 13.0221 9.27779 12.484 9.67142L15.0284 13.1936ZM23.7673 12.5105L25.7371 8.63312C25.1456 8.32915 24.5252 8.06958 23.8921 7.86294L22.5537 12.0042C22.9704 12.1408 23.3786 12.3107 23.7682 12.5114L23.7673 12.5105ZM17.364 11.9991C17.7807 11.8641 18.2118 11.7608 18.6446 11.6925L17.975 7.3899C17.319 7.49322 16.6655 7.64948 16.034 7.85526L17.364 11.9991ZM21.273 11.6951L21.9503 7.39332C21.2951 7.28914 20.6263 7.23535 19.9626 7.23535L19.9584 11.59C20.3972 11.59 20.8393 11.6259 21.273 11.6951Z"
                fill="white" />
            <path
                d="M19.9486 28.6652V24.2885C19.583 24.2885 19.2182 24.2405 18.8655 24.147L17.7361 28.3751C18.457 28.5673 19.2011 28.6652 19.9486 28.6652ZM22.1612 28.3751C22.8847 28.182 23.5807 27.8946 24.2279 27.5204L22.0376 23.7307C21.7226 23.9127 21.3845 24.0526 21.0326 24.1461L22.1612 28.3751ZM15.6685 27.5196L17.8596 23.7307C17.5455 23.5488 17.2546 23.3248 16.9936 23.0648L16.9533 23.0253L15.5707 24.4808L13.8739 26.1345L13.8988 26.1585C14.4292 26.6888 15.0248 27.1462 15.6694 27.5196H15.6685ZM25.9985 26.1602H25.9993C26.5288 25.629 26.9863 25.0343 27.3588 24.3906L23.5705 22.1989C23.3885 22.513 23.1645 22.8039 22.9044 23.0639L25.9985 26.1602ZM12.5333 24.3812L16.3251 22.1946C16.1431 21.8797 16.0041 21.5415 15.9106 21.1889L11.6802 22.3139C11.8725 23.0373 12.16 23.7333 12.5333 24.3812ZM28.2153 22.3251C28.4076 21.6042 28.5054 20.8602 28.5063 20.1127L24.1292 20.111C24.1292 20.4774 24.0811 20.8421 23.9867 21.1948L28.2153 22.3251ZM15.7698 20.1058C15.7698 19.7394 15.8179 19.3747 15.9131 19.022L11.6854 17.8892C11.4923 18.6101 11.3936 19.3541 11.3936 20.1015L15.7706 20.1058H15.7698ZM23.9876 19.0271L28.217 17.9003C28.0239 17.1769 27.7364 16.4809 27.3631 15.8339L23.5722 18.0222C23.7541 18.3371 23.894 18.6753 23.9876 19.0271ZM16.3294 18.0171C16.5087 17.7073 16.7302 17.4198 16.9859 17.1623L16.9971 17.1512L15.4316 15.5859L13.9263 14.0334L13.8988 14.0601C13.3701 14.5887 12.9135 15.1817 12.5419 15.8236L16.3294 18.0171ZM22.907 17.1563L24.457 15.6065L26.0388 14.0995L25.9993 14.0592C25.4706 13.5306 24.8758 13.0732 24.233 12.7007L22.0402 16.4887C22.35 16.668 22.6384 16.8894 22.8959 17.1452L22.907 17.1563ZM17.8622 16.4861C18.1763 16.3042 18.5145 16.1651 18.8672 16.0707L17.7412 11.8417C17.0168 12.0348 16.3217 12.3214 15.6737 12.6956L17.8622 16.4861ZM21.0352 16.0725L22.1672 11.8443C21.4463 11.6512 20.7022 11.5533 19.9546 11.5525L19.9521 15.9291C20.3185 15.9291 20.6833 15.9772 21.036 16.0716L21.0352 16.0725Z"
                fill="white" />
        </g>
    </g>
    <defs>
        <clipPath id="clip0_19035_6244">
            <rect width="40" height="40" rx="6" fill="white" />
        </clipPath>
        <clipPath id="clip1_19035_6244">
            <rect width="26" height="26" fill="white" transform="translate(7 7)" />
        </clipPath>
    </defs>
</svg>
    