<svg width="40" height="40" viewBox="0 0 40 40" fill="none" xmlns="http://www.w3.org/2000/svg">
<rect width="40" height="40" fill="#8247E5"/>
<path d="M29.9088 12.1278L21.9066 7.50556C21.3288 7.17333 20.6788 7 20.0288 7C19.3788 7 18.7144 7.17333 18.1511 7.50556L10.12 12.1278C9.54219 12.46 9.06552 12.9367 8.74774 13.5C8.41552 14.0778 8.24219 14.7278 8.24219 15.3778V24.6367C8.24219 25.2867 8.42997 25.9367 8.74774 26.5C9.07996 27.0633 9.55663 27.54 10.12 27.8722L18.1222 32.4944C18.7 32.8267 19.35 33 20 33C20.65 33 21.3144 32.8267 21.8777 32.4944L29.88 27.8722C30.4577 27.54 30.9344 27.0633 31.2522 26.5C31.5844 25.9222 31.7577 25.2722 31.7577 24.6222V15.3489C31.7577 14.6989 31.5699 14.0489 31.2522 13.4856C30.9488 12.9222 30.4722 12.4456 29.9088 12.1278ZM10.12 15.3778C10.12 15.0456 10.2066 14.7278 10.3655 14.4389C10.5244 14.15 10.77 13.9189 11.0589 13.7456L19.0611 9.12333C19.35 8.95 19.6677 8.86333 20 8.86333C20.3322 8.86333 20.65 8.95 20.9388 9.12333L28.9411 13.7456C29.23 13.9044 29.4611 14.1356 29.62 14.4244C29.7788 14.6989 29.88 15.0311 29.88 15.3489V16.2878C29.88 17.0244 29.5911 17.7178 29.0711 18.2378C28.5511 18.7578 27.8433 19.0467 27.1211 19.0467H12.8933C11.8966 19.0467 10.9289 19.3644 10.12 19.9711V15.3778ZM29.9088 24.6078C29.9088 24.94 29.8222 25.2578 29.6633 25.5467C29.5044 25.8356 29.2588 26.0667 28.97 26.24L20.9677 30.8622C20.6788 31.0211 20.3611 31.1078 20.0288 31.1078C19.6966 31.1078 19.3788 31.0211 19.09 30.8622L11.0877 26.24C10.7989 26.0811 10.5677 25.85 10.4089 25.5611C10.25 25.2867 10.1489 24.9544 10.1489 24.6367V23.6978C10.1489 22.9611 10.4377 22.2678 10.9577 21.7478C11.4777 21.2278 12.1855 20.9389 12.9077 20.9389H27.15C28.1466 20.9389 29.1144 20.6211 29.9233 20.0144V24.6078H29.9088Z" fill="white"/>
<path d="M15.6385 14.9154H17.4585V17.6454H19.3363V14.9154C19.3363 14.4098 19.1341 13.9332 18.7874 13.5865C18.4407 13.2398 17.9496 13.0376 17.4585 13.0376H15.6385C15.133 13.0376 14.6563 13.2398 14.3096 13.5865C13.963 13.9332 13.7607 14.4243 13.7607 14.9154V17.6454H15.6385V14.9154Z" fill="white"/>
<path d="M17.4585 25.0845H15.6385V22.3545H13.7607V25.0845C13.7607 25.59 13.963 26.0667 14.3096 26.4134C14.6563 26.76 15.1474 26.9623 15.6385 26.9623H17.4585C17.9641 26.9623 18.4407 26.76 18.7874 26.4134C19.1341 26.0667 19.3363 25.5756 19.3363 25.0845V22.3545H17.4585V25.0845Z" fill="white"/>
<path d="M23.0614 14.9154H24.8958V17.6454H26.7736V14.9154C26.7736 14.4098 26.5714 13.9332 26.2247 13.5865C25.878 13.2398 25.3869 13.0376 24.8958 13.0376H23.0614C22.5558 13.0376 22.0791 13.2398 21.7325 13.5865C21.3858 13.9332 21.1836 14.4243 21.1836 14.9154V17.6454H23.0614V14.9154Z" fill="white"/>
<path d="M24.8821 25.0845H23.0477V22.3545H21.1699V25.0845C21.1699 25.59 21.3721 26.0667 21.7188 26.4134C22.0655 26.76 22.5566 26.9623 23.0477 26.9623H24.8821C25.3877 26.9623 25.8644 26.76 26.211 26.4134C26.5577 26.0667 26.7599 25.5756 26.7599 25.0845V22.3545H24.8821V25.0845Z" fill="white"/>
</svg>
