<svg width="40" height="40" viewBox="0 0 40 40" fill="none" xmlns="http://www.w3.org/2000/svg">
<rect width="40" height="40" rx="20" fill="#282138"/>
<g clip-path="url(#clip0_10_7938)">
<path d="M28.2022 12.4561L27.4883 13.17C29.1917 15.0329 30.1364 17.4658 30.1364 19.9901C30.1364 22.5144 29.1917 24.9473 27.4883 26.8101L28.2022 27.524C30.0966 25.4692 31.1484 22.7766 31.1484 19.9817C31.1484 17.1869 30.0966 14.4943 28.2022 12.4395V12.4561Z" fill="#5A556F"/>
<path d="M13.1876 12.5185C15.0504 10.815 17.4834 9.87037 20.0076 9.87037C22.5319 9.87037 24.9648 10.815 26.8277 12.5185L27.5416 11.8046C25.4867 9.91017 22.7942 8.8584 19.9993 8.8584C17.2044 8.8584 14.5119 9.91017 12.457 11.8046L13.1876 12.5185Z" fill="#5A556F"/>
<path d="M12.5195 26.8176C10.818 24.9551 9.87461 22.5237 9.87461 20.0011C9.87461 17.4785 10.818 15.047 12.5195 13.1846L11.8056 12.4707C9.91115 14.5256 8.85938 17.2181 8.85938 20.013C8.85938 22.8079 9.91115 25.5004 11.8056 27.5553L12.5195 26.8176Z" fill="#5A556F"/>
<path d="M26.8189 27.4766C24.956 29.18 22.5231 30.1247 19.9988 30.1247C17.4745 30.1247 15.0416 29.18 13.1787 27.4766L12.4648 28.1905C14.5197 30.0849 17.2122 31.1367 20.0071 31.1367C22.802 31.1367 25.4945 30.0849 27.5494 28.1905L26.8189 27.4766Z" fill="#5A556F"/>
<path d="M24.5077 17.6187C24.3649 16.1291 23.0799 15.6293 21.4546 15.477V13.4258H20.1982V15.439C19.8674 15.439 19.5295 15.439 19.194 15.439V13.4258H17.947V15.4913H15.3984V16.8358C15.3984 16.8358 16.3265 16.8192 16.3122 16.8358C16.4796 16.8174 16.6475 16.8647 16.7807 16.9677C16.9138 17.0706 17.0018 17.2213 17.0261 17.3879V23.0419C17.0225 23.1007 17.0072 23.1581 16.9811 23.2108C16.9549 23.2636 16.9184 23.3105 16.8738 23.3489C16.83 23.388 16.7788 23.4179 16.7232 23.4367C16.6676 23.4555 16.6087 23.4629 16.5502 23.4584C16.5668 23.4726 15.6364 23.4584 15.6364 23.4584L15.3984 24.9599H17.9232V27.0588H19.1797V24.9909H20.1839V27.0492H21.4427V24.9742C23.5654 24.8457 25.0455 24.3222 25.2311 22.3352C25.381 20.7361 24.6291 20.0222 23.4274 19.7342C24.1579 19.3749 24.61 18.7086 24.5077 17.6187ZM22.7468 22.0877C22.7468 23.6487 20.0721 23.4703 19.2201 23.4703V20.7004C20.0721 20.7027 22.7468 20.4576 22.7468 22.0877ZM22.1638 18.1851C22.1638 19.6129 19.9317 19.4391 19.2225 19.4391V16.9215C19.9317 16.9215 22.1638 16.6978 22.1638 18.1851Z" fill="white"/>
<path d="M19.9976 33C17.4267 32.9995 14.9136 32.2368 12.7761 30.8081C10.6386 29.3795 8.97276 27.3491 7.98912 24.9738C7.00547 22.5984 6.74823 19.9848 7.24991 17.4632C7.7516 14.9417 8.98968 12.6256 10.8076 10.8076C12.6256 8.98968 14.9417 7.7516 17.4632 7.24991C19.9848 6.74823 22.5984 7.00547 24.9738 7.98912C27.3491 8.97276 29.3795 10.6386 30.8081 12.7761C32.2368 14.9136 32.9995 17.4267 33 19.9976C33.0003 21.7052 32.6642 23.3961 32.0109 24.9738C31.3576 26.5515 30.3998 27.9849 29.1924 29.1924C27.9849 30.3998 26.5515 31.3576 24.9738 32.0109C23.3961 32.6642 21.7052 33.0003 19.9976 33ZM19.9976 8.01373C17.629 8.01562 15.3141 8.71966 13.3455 10.0369C11.3769 11.3541 9.84295 13.2254 8.9376 15.4141C8.03224 17.6029 7.7961 20.011 8.259 22.334C8.72191 24.6569 9.86309 26.7905 11.5383 28.4651C13.2135 30.1396 15.3476 31.2799 17.6707 31.7419C19.9939 32.2039 22.4018 31.9668 24.5903 31.0606C26.7787 30.1544 28.6493 28.6197 29.9658 26.6506C31.2822 24.6815 31.9853 22.3663 31.9863 19.9976C31.9869 18.4233 31.6772 16.8643 31.0749 15.4097C30.4726 13.9552 29.5894 12.6336 28.476 11.5207C27.3626 10.4077 26.0406 9.52506 24.5859 8.92331C23.1311 8.32157 21.5719 8.01248 19.9976 8.01373Z" fill="white"/>
</g>
<defs>
<clipPath id="clip0_10_7938">
<rect width="26" height="26" fill="white" transform="translate(7 7)"/>
</clipPath>
</defs>
</svg>
