<svg width="40" height="41" viewBox="0 0 40 41" fill="none" xmlns="http://www.w3.org/2000/svg">
<rect y="0.998047" width="40" height="40" fill="black"/>
<path d="M26.4188 16.8203H24.2281C24.1017 16.8202 23.9768 16.7927 23.8617 16.7397C23.7466 16.6866 23.644 16.6092 23.5607 16.5127L22.6721 15.494C22.6064 15.4194 22.526 15.3597 22.436 15.3188C22.3461 15.278 22.2486 15.2568 22.1501 15.2568C22.0515 15.2568 21.954 15.278 21.8641 15.3188C21.7741 15.3597 21.6937 15.4194 21.628 15.494L20.8664 16.3672C20.7436 16.5092 20.5925 16.6231 20.4231 16.7013C20.2536 16.7794 20.0697 16.82 19.8836 16.8203H7.89423C7.54856 17.8263 7.3298 18.8727 7.24316 19.9345H18.561C18.6591 19.9344 18.7561 19.914 18.8462 19.8747C18.9363 19.8354 19.0176 19.7779 19.0851 19.7058L20.1416 18.5874C20.207 18.5189 20.2852 18.4644 20.3718 18.4273C20.4583 18.3902 20.5513 18.3711 20.6452 18.3712H20.6862C20.785 18.3716 20.8825 18.3929 20.9728 18.4337C21.063 18.4745 21.1439 18.5339 21.2103 18.6082L22.0989 19.6268C22.182 19.7236 22.2846 19.8011 22.3997 19.8542C22.5149 19.9072 22.6399 19.9346 22.7663 19.9345H31.9999C31.9153 18.8724 31.6964 17.8258 31.3489 16.8203H26.4352H26.4188Z" fill="white"/>
<path d="M14.0896 26.4834C14.1876 26.4828 14.2845 26.4622 14.3745 26.423C14.4645 26.3837 14.5459 26.3265 14.6138 26.2547L15.6661 25.1363C15.7319 25.0684 15.8103 25.0143 15.8967 24.9772C15.9831 24.9401 16.0759 24.9207 16.1698 24.9201H16.2148C16.3136 24.9206 16.4112 24.9419 16.5014 24.9827C16.5916 25.0235 16.6725 25.0829 16.7389 25.1571L17.6234 26.1757C17.707 26.2719 17.8097 26.349 17.9248 26.402C18.0398 26.455 18.1645 26.4827 18.2908 26.4834H30.8085C31.2854 25.4878 31.6296 24.4322 31.8321 23.3443H19.8141C19.6887 23.3439 19.5649 23.3166 19.4506 23.2643C19.3363 23.212 19.2341 23.1359 19.1507 23.0408L18.2622 22.0222C18.1966 21.9466 18.116 21.886 18.0256 21.8444C17.9353 21.8028 17.8373 21.7812 17.7381 21.781C17.6394 21.7807 17.5418 21.8021 17.452 21.8438C17.3623 21.8854 17.2824 21.9462 17.218 22.0222L16.4564 22.8953C16.3325 23.0367 16.1805 23.1498 16.0104 23.2273C15.8403 23.3047 15.656 23.3446 15.4696 23.3443H7.41113C7.61164 24.4348 7.95453 25.4933 8.43072 26.4917L14.0896 26.4834Z" fill="white"/>
<path d="M22.9708 13.4154C23.0695 13.4153 23.1671 13.3951 23.2579 13.3558C23.3487 13.3165 23.4307 13.259 23.499 13.1867L24.5514 12.0724C24.6163 12.003 24.6944 11.9477 24.7809 11.9098C24.8675 11.8719 24.9608 11.8523 25.055 11.8521H25.1001C25.1988 11.8518 25.2963 11.8732 25.3861 11.9148C25.4759 11.9565 25.5557 12.0173 25.6201 12.0932L26.5087 13.1119C26.593 13.2068 26.6959 13.2829 26.8109 13.3351C26.9258 13.3874 27.0502 13.4147 27.1761 13.4154H29.5552C28.3978 11.8506 26.8977 10.5807 25.1736 9.70612C23.4495 8.83152 21.5486 8.37622 19.6213 8.37622C17.694 8.37622 15.7932 8.83152 14.0691 9.70612C12.345 10.5807 10.8449 11.8506 9.6875 13.4154H22.9708Z" fill="white"/>
<path d="M18.188 29.6011H14.9327C14.8069 29.6009 14.6826 29.5734 14.5682 29.5203C14.4538 29.4672 14.3519 29.3899 14.2694 29.2934L13.3849 28.2748C13.3189 28.2001 13.238 28.1403 13.1477 28.0994C13.0574 28.0585 12.9597 28.0374 12.8608 28.0374C12.7619 28.0374 12.6641 28.0585 12.5738 28.0994C12.4835 28.1403 12.4027 28.2001 12.3367 28.2748L11.5709 29.1646C11.4484 29.3068 11.2973 29.4209 11.1278 29.499C10.9583 29.5772 10.7743 29.6177 10.5882 29.6177H10.5391C11.7012 30.8835 13.1074 31.8928 14.6702 32.583C16.233 33.2731 17.919 33.6292 19.6232 33.6292C21.3275 33.6292 23.0134 33.2731 24.5763 32.583C26.1391 31.8928 27.5453 30.8835 28.7074 29.6177L18.188 29.6011Z" fill="white"/>
</svg>
