<svg width="40" height="40" viewBox="0 0 40 40" fill="none" xmlns="http://www.w3.org/2000/svg">
<rect width="40" height="40" fill="#00193C"/>
<path d="M14.391 21.8873C15.1744 21.8879 15.9357 21.6275 16.5546 21.1472L11.591 16.1836C11.1862 16.7072 10.9363 17.3338 10.8696 17.9923C10.8029 18.6507 10.9221 19.3147 11.2136 19.9089C11.5052 20.503 11.9574 21.0036 12.519 21.3537C13.0807 21.7039 13.7292 21.8896 14.391 21.8899V21.8873Z" fill="white"/>
<path d="M29.1516 18.3453C29.1524 17.5619 28.8922 16.8006 28.4121 16.1816L23.4453 21.1453C23.9689 21.5503 24.5955 21.8005 25.254 21.8673C25.9126 21.9341 26.5767 21.815 27.171 21.5234C27.7652 21.2318 28.2658 20.7794 28.6159 20.2177C28.966 19.6559 29.1516 19.0072 29.1516 18.3453Z" fill="white"/>
<path d="M31.6496 12.9453L29.4529 15.142C30.2542 16.1007 30.6677 17.3245 30.612 18.5727C30.5563 19.8208 30.0355 21.003 29.1521 21.8865C28.2687 22.77 27.0866 23.2909 25.8384 23.3466C24.5903 23.4024 23.3664 22.989 22.4077 22.1879L20.001 24.5939L17.5943 22.1879C16.6356 22.989 15.4117 23.4024 14.1636 23.3466C12.9154 23.2909 11.7333 22.77 10.8499 21.8865C9.96645 21.003 9.44567 19.8208 9.39 18.5727C9.33434 17.3245 9.74782 16.1007 10.5491 15.142L9.42018 14.0131L8.35555 12.9453C7.06284 15.0714 6.38033 17.5124 6.38282 20.0007C6.38282 27.5219 12.4798 33.6189 20.001 33.6189C27.5222 33.6189 33.6192 27.5219 33.6192 20.0007C33.6226 17.5127 32.9412 15.0718 31.6496 12.9453Z" fill="white"/>
<path d="M29.8555 10.6017C28.5842 9.26815 27.0555 8.20655 25.3619 7.48119C23.6683 6.75584 21.8451 6.38184 20.0027 6.38184C18.1603 6.38184 16.3371 6.75584 14.6434 7.48119C12.9498 8.20655 11.4211 9.26815 10.1499 10.6017C9.81207 10.9559 9.49344 11.3278 9.19531 11.716L20.0027 22.524L30.8107 11.716C30.5123 11.3278 30.1935 10.9558 29.8555 10.6017ZM20.0027 8.16378C23.1877 8.16378 26.1487 9.3926 28.3753 11.6313L20.0027 20.004L11.63 11.6313C13.8567 9.3926 16.8209 8.16378 20.0027 8.16378Z" fill="white"/>
</svg>
